<mxfile host="Electron" modified="2025-03-11T18:54:20.822Z" agent="Mozilla/5.0 (Windows NT 10.0; Win64; x64) AppleWebKit/537.36 (KHTML, like Gecko) draw.io/22.1.2 Chrome/114.0.5735.289 Electron/25.9.4 Safari/537.36" etag="heBafd4TVOggnGQZOnA8" version="22.1.2" type="device">
  <diagram name="Página-1" id="tjZj_1XaWImPlthcoRTL">
    <mxGraphModel dx="1687" dy="993" grid="1" gridSize="10" guides="1" tooltips="1" connect="1" arrows="1" fold="1" page="1" pageScale="1" pageWidth="827" pageHeight="1169" math="0" shadow="0">
      <root>
        <mxCell id="0" />
        <mxCell id="1" parent="0" />
        <mxCell id="VS8DY8lQryiJPOhcqmUo-39" style="edgeStyle=orthogonalEdgeStyle;rounded=0;orthogonalLoop=1;jettySize=auto;html=1;" edge="1" parent="1" source="VS8DY8lQryiJPOhcqmUo-1" target="VS8DY8lQryiJPOhcqmUo-34">
          <mxGeometry relative="1" as="geometry" />
        </mxCell>
        <mxCell id="VS8DY8lQryiJPOhcqmUo-1" value="Cumprimento" style="ellipse;whiteSpace=wrap;html=1;fillColor=#d5e8d4;strokeColor=#82b366;" vertex="1" parent="1">
          <mxGeometry x="20" y="30" width="110" height="80" as="geometry" />
        </mxCell>
        <mxCell id="VS8DY8lQryiJPOhcqmUo-8" value="fallback" style="rhombus;whiteSpace=wrap;html=1;fillColor=#f8cecc;strokeColor=#b85450;" vertex="1" parent="1">
          <mxGeometry x="470" y="30" width="80" height="80" as="geometry" />
        </mxCell>
        <mxCell id="VS8DY8lQryiJPOhcqmUo-37" style="edgeStyle=orthogonalEdgeStyle;rounded=0;orthogonalLoop=1;jettySize=auto;html=1;" edge="1" parent="1" source="VS8DY8lQryiJPOhcqmUo-34" target="VS8DY8lQryiJPOhcqmUo-8">
          <mxGeometry relative="1" as="geometry" />
        </mxCell>
        <mxCell id="VS8DY8lQryiJPOhcqmUo-41" style="edgeStyle=orthogonalEdgeStyle;rounded=0;orthogonalLoop=1;jettySize=auto;html=1;" edge="1" parent="1" source="VS8DY8lQryiJPOhcqmUo-94" target="VS8DY8lQryiJPOhcqmUo-40">
          <mxGeometry relative="1" as="geometry" />
        </mxCell>
        <mxCell id="VS8DY8lQryiJPOhcqmUo-34" value="Escolha o tamanho" style="rounded=0;whiteSpace=wrap;html=1;fillColor=#dae8fc;strokeColor=#6c8ebf;" vertex="1" parent="1">
          <mxGeometry x="245" y="40" width="120" height="60" as="geometry" />
        </mxCell>
        <mxCell id="VS8DY8lQryiJPOhcqmUo-96" style="edgeStyle=orthogonalEdgeStyle;rounded=0;orthogonalLoop=1;jettySize=auto;html=1;" edge="1" parent="1" source="VS8DY8lQryiJPOhcqmUo-40" target="VS8DY8lQryiJPOhcqmUo-95">
          <mxGeometry relative="1" as="geometry" />
        </mxCell>
        <mxCell id="VS8DY8lQryiJPOhcqmUo-40" value="sabor do açai" style="rounded=0;whiteSpace=wrap;html=1;fillColor=#dae8fc;strokeColor=#6c8ebf;" vertex="1" parent="1">
          <mxGeometry x="245" y="210" width="120" height="60" as="geometry" />
        </mxCell>
        <mxCell id="VS8DY8lQryiJPOhcqmUo-100" value="" style="edgeStyle=orthogonalEdgeStyle;rounded=0;orthogonalLoop=1;jettySize=auto;html=1;" edge="1" parent="1" source="VS8DY8lQryiJPOhcqmUo-42" target="VS8DY8lQryiJPOhcqmUo-99">
          <mxGeometry relative="1" as="geometry" />
        </mxCell>
        <mxCell id="VS8DY8lQryiJPOhcqmUo-42" value="Calda" style="rounded=0;whiteSpace=wrap;html=1;fillColor=#dae8fc;strokeColor=#6c8ebf;" vertex="1" parent="1">
          <mxGeometry x="245" y="400" width="120" height="60" as="geometry" />
        </mxCell>
        <mxCell id="VS8DY8lQryiJPOhcqmUo-103" style="edgeStyle=orthogonalEdgeStyle;rounded=0;orthogonalLoop=1;jettySize=auto;html=1;" edge="1" parent="1" source="VS8DY8lQryiJPOhcqmUo-44" target="VS8DY8lQryiJPOhcqmUo-102">
          <mxGeometry relative="1" as="geometry" />
        </mxCell>
        <mxCell id="VS8DY8lQryiJPOhcqmUo-44" value="Condimentos" style="rounded=0;whiteSpace=wrap;html=1;fillColor=#dae8fc;strokeColor=#6c8ebf;" vertex="1" parent="1">
          <mxGeometry x="245" y="585" width="120" height="60" as="geometry" />
        </mxCell>
        <mxCell id="VS8DY8lQryiJPOhcqmUo-117" style="edgeStyle=orthogonalEdgeStyle;rounded=0;orthogonalLoop=1;jettySize=auto;html=1;" edge="1" parent="1" source="VS8DY8lQryiJPOhcqmUo-48" target="VS8DY8lQryiJPOhcqmUo-116">
          <mxGeometry relative="1" as="geometry" />
        </mxCell>
        <mxCell id="VS8DY8lQryiJPOhcqmUo-48" value="endereço de entrega" style="rounded=0;whiteSpace=wrap;html=1;fillColor=#dae8fc;strokeColor=#6c8ebf;" vertex="1" parent="1">
          <mxGeometry x="490" y="980" width="120" height="60" as="geometry" />
        </mxCell>
        <mxCell id="VS8DY8lQryiJPOhcqmUo-74" style="edgeStyle=orthogonalEdgeStyle;rounded=0;orthogonalLoop=1;jettySize=auto;html=1;" edge="1" parent="1" source="VS8DY8lQryiJPOhcqmUo-53" target="VS8DY8lQryiJPOhcqmUo-55">
          <mxGeometry relative="1" as="geometry">
            <mxPoint x="680" y="1540.0000000000005" as="targetPoint" />
          </mxGeometry>
        </mxCell>
        <mxCell id="VS8DY8lQryiJPOhcqmUo-53" value="Você quer um açai {tamanho_cacai}&lt;br&gt;{sabor_acai}&lt;br&gt;{calda_acai}&lt;br&gt;{condimentos_acai}&lt;br&gt;{adicionais_acai}&lt;br&gt;{endereço}&lt;br&gt;{total_da_compra}&lt;br&gt;{Troco}" style="rounded=0;whiteSpace=wrap;html=1;fillColor=#d5e8d4;strokeColor=#82b366;" vertex="1" parent="1">
          <mxGeometry x="440" y="1510" width="170" height="140" as="geometry" />
        </mxCell>
        <mxCell id="VS8DY8lQryiJPOhcqmUo-55" value="Fim" style="ellipse;whiteSpace=wrap;html=1;fillColor=#d5e8d4;strokeColor=#82b366;" vertex="1" parent="1">
          <mxGeometry x="700" y="1540" width="110" height="80" as="geometry" />
        </mxCell>
        <mxCell id="VS8DY8lQryiJPOhcqmUo-63" style="edgeStyle=orthogonalEdgeStyle;rounded=0;orthogonalLoop=1;jettySize=auto;html=1;" edge="1" parent="1" source="VS8DY8lQryiJPOhcqmUo-57" target="VS8DY8lQryiJPOhcqmUo-62">
          <mxGeometry relative="1" as="geometry" />
        </mxCell>
        <mxCell id="VS8DY8lQryiJPOhcqmUo-57" value="forma de pagamento" style="rhombus;whiteSpace=wrap;html=1;fillColor=#fff2cc;strokeColor=#d6b656;" vertex="1" parent="1">
          <mxGeometry x="262.5" y="1160" width="85" height="90" as="geometry" />
        </mxCell>
        <mxCell id="VS8DY8lQryiJPOhcqmUo-140" style="edgeStyle=orthogonalEdgeStyle;rounded=0;orthogonalLoop=1;jettySize=auto;html=1;entryX=0.5;entryY=0;entryDx=0;entryDy=0;" edge="1" parent="1" source="VS8DY8lQryiJPOhcqmUo-62" target="VS8DY8lQryiJPOhcqmUo-66">
          <mxGeometry relative="1" as="geometry" />
        </mxCell>
        <mxCell id="VS8DY8lQryiJPOhcqmUo-62" value="Dinheiro" style="rounded=0;whiteSpace=wrap;html=1;fillColor=#dae8fc;strokeColor=#6c8ebf;" vertex="1" parent="1">
          <mxGeometry x="190" y="1290" width="120" height="60" as="geometry" />
        </mxCell>
        <mxCell id="VS8DY8lQryiJPOhcqmUo-125" style="edgeStyle=orthogonalEdgeStyle;rounded=0;orthogonalLoop=1;jettySize=auto;html=1;" edge="1" parent="1" source="VS8DY8lQryiJPOhcqmUo-64" target="VS8DY8lQryiJPOhcqmUo-53">
          <mxGeometry relative="1" as="geometry" />
        </mxCell>
        <mxCell id="VS8DY8lQryiJPOhcqmUo-64" value="Demais pagamentos" style="rounded=0;whiteSpace=wrap;html=1;fillColor=#dae8fc;strokeColor=#6c8ebf;" vertex="1" parent="1">
          <mxGeometry x="330" y="1290" width="120" height="60" as="geometry" />
        </mxCell>
        <mxCell id="VS8DY8lQryiJPOhcqmUo-65" style="edgeStyle=orthogonalEdgeStyle;rounded=0;orthogonalLoop=1;jettySize=auto;html=1;entryX=0.335;entryY=0.038;entryDx=0;entryDy=0;entryPerimeter=0;" edge="1" parent="1" source="VS8DY8lQryiJPOhcqmUo-57" target="VS8DY8lQryiJPOhcqmUo-64">
          <mxGeometry relative="1" as="geometry" />
        </mxCell>
        <mxCell id="VS8DY8lQryiJPOhcqmUo-134" style="edgeStyle=orthogonalEdgeStyle;rounded=0;orthogonalLoop=1;jettySize=auto;html=1;" edge="1" parent="1" source="VS8DY8lQryiJPOhcqmUo-66" target="VS8DY8lQryiJPOhcqmUo-132">
          <mxGeometry relative="1" as="geometry" />
        </mxCell>
        <mxCell id="VS8DY8lQryiJPOhcqmUo-139" style="edgeStyle=orthogonalEdgeStyle;rounded=0;orthogonalLoop=1;jettySize=auto;html=1;entryX=0.5;entryY=0;entryDx=0;entryDy=0;" edge="1" parent="1" source="VS8DY8lQryiJPOhcqmUo-66" target="VS8DY8lQryiJPOhcqmUo-135">
          <mxGeometry relative="1" as="geometry" />
        </mxCell>
        <mxCell id="VS8DY8lQryiJPOhcqmUo-66" value="Precisa de troco?" style="rhombus;whiteSpace=wrap;html=1;fillColor=#fff2cc;strokeColor=#d6b656;" vertex="1" parent="1">
          <mxGeometry x="30" y="1350" width="85" height="90" as="geometry" />
        </mxCell>
        <mxCell id="VS8DY8lQryiJPOhcqmUo-88" style="edgeStyle=orthogonalEdgeStyle;rounded=0;orthogonalLoop=1;jettySize=auto;html=1;" edge="1" parent="1" source="VS8DY8lQryiJPOhcqmUo-75" target="VS8DY8lQryiJPOhcqmUo-80">
          <mxGeometry relative="1" as="geometry" />
        </mxCell>
        <mxCell id="VS8DY8lQryiJPOhcqmUo-115" style="edgeStyle=orthogonalEdgeStyle;rounded=0;orthogonalLoop=1;jettySize=auto;html=1;" edge="1" parent="1" source="VS8DY8lQryiJPOhcqmUo-75" target="VS8DY8lQryiJPOhcqmUo-87">
          <mxGeometry relative="1" as="geometry" />
        </mxCell>
        <mxCell id="VS8DY8lQryiJPOhcqmUo-75" value="Adicionais?" style="rhombus;whiteSpace=wrap;html=1;fillColor=#fff2cc;strokeColor=#d6b656;" vertex="1" parent="1">
          <mxGeometry x="447.5" y="570" width="85" height="90" as="geometry" />
        </mxCell>
        <mxCell id="VS8DY8lQryiJPOhcqmUo-107" style="edgeStyle=orthogonalEdgeStyle;rounded=0;orthogonalLoop=1;jettySize=auto;html=1;" edge="1" parent="1" source="VS8DY8lQryiJPOhcqmUo-80" target="VS8DY8lQryiJPOhcqmUo-105">
          <mxGeometry relative="1" as="geometry" />
        </mxCell>
        <mxCell id="VS8DY8lQryiJPOhcqmUo-80" value="Sim" style="rounded=0;whiteSpace=wrap;html=1;fillColor=#dae8fc;strokeColor=#6c8ebf;" vertex="1" parent="1">
          <mxGeometry x="590" y="725" width="120" height="60" as="geometry" />
        </mxCell>
        <mxCell id="VS8DY8lQryiJPOhcqmUo-114" style="edgeStyle=orthogonalEdgeStyle;rounded=0;orthogonalLoop=1;jettySize=auto;html=1;entryX=0.5;entryY=0;entryDx=0;entryDy=0;" edge="1" parent="1" source="VS8DY8lQryiJPOhcqmUo-87" target="VS8DY8lQryiJPOhcqmUo-105">
          <mxGeometry relative="1" as="geometry" />
        </mxCell>
        <mxCell id="VS8DY8lQryiJPOhcqmUo-87" value="Não" style="rounded=0;whiteSpace=wrap;html=1;fillColor=#dae8fc;strokeColor=#6c8ebf;" vertex="1" parent="1">
          <mxGeometry x="430" y="725" width="120" height="60" as="geometry" />
        </mxCell>
        <mxCell id="VS8DY8lQryiJPOhcqmUo-93" value="" style="edgeStyle=orthogonalEdgeStyle;rounded=0;orthogonalLoop=1;jettySize=auto;html=1;" edge="1" parent="1" source="VS8DY8lQryiJPOhcqmUo-34" target="VS8DY8lQryiJPOhcqmUo-94">
          <mxGeometry relative="1" as="geometry">
            <mxPoint x="305" y="100" as="sourcePoint" />
            <mxPoint x="305" y="250" as="targetPoint" />
          </mxGeometry>
        </mxCell>
        <mxCell id="VS8DY8lQryiJPOhcqmUo-94" value="{tamanho_acai}" style="rounded=0;whiteSpace=wrap;html=1;fillColor=#ffe6cc;strokeColor=#d79b00;" vertex="1" parent="1">
          <mxGeometry x="245" y="130" width="120" height="60" as="geometry" />
        </mxCell>
        <mxCell id="VS8DY8lQryiJPOhcqmUo-97" style="edgeStyle=orthogonalEdgeStyle;rounded=0;orthogonalLoop=1;jettySize=auto;html=1;" edge="1" parent="1" source="VS8DY8lQryiJPOhcqmUo-95" target="VS8DY8lQryiJPOhcqmUo-42">
          <mxGeometry relative="1" as="geometry" />
        </mxCell>
        <mxCell id="VS8DY8lQryiJPOhcqmUo-95" value="{sabor_acai}" style="rounded=0;whiteSpace=wrap;html=1;fillColor=#ffe6cc;strokeColor=#d79b00;" vertex="1" parent="1">
          <mxGeometry x="245" y="310" width="120" height="60" as="geometry" />
        </mxCell>
        <mxCell id="VS8DY8lQryiJPOhcqmUo-101" value="" style="edgeStyle=orthogonalEdgeStyle;rounded=0;orthogonalLoop=1;jettySize=auto;html=1;" edge="1" parent="1" source="VS8DY8lQryiJPOhcqmUo-99" target="VS8DY8lQryiJPOhcqmUo-44">
          <mxGeometry relative="1" as="geometry" />
        </mxCell>
        <mxCell id="VS8DY8lQryiJPOhcqmUo-99" value="{calda_acai}" style="rounded=0;whiteSpace=wrap;html=1;fillColor=#ffe6cc;strokeColor=#d79b00;" vertex="1" parent="1">
          <mxGeometry x="245" y="490" width="120" height="60" as="geometry" />
        </mxCell>
        <mxCell id="VS8DY8lQryiJPOhcqmUo-112" style="edgeStyle=orthogonalEdgeStyle;rounded=0;orthogonalLoop=1;jettySize=auto;html=1;entryX=0;entryY=0.5;entryDx=0;entryDy=0;" edge="1" parent="1" source="VS8DY8lQryiJPOhcqmUo-102" target="VS8DY8lQryiJPOhcqmUo-75">
          <mxGeometry relative="1" as="geometry" />
        </mxCell>
        <mxCell id="VS8DY8lQryiJPOhcqmUo-102" value="{condimentos_acai}" style="rounded=0;whiteSpace=wrap;html=1;fillColor=#ffe6cc;strokeColor=#d79b00;" vertex="1" parent="1">
          <mxGeometry x="245" y="680" width="120" height="60" as="geometry" />
        </mxCell>
        <mxCell id="VS8DY8lQryiJPOhcqmUo-108" value="" style="edgeStyle=orthogonalEdgeStyle;rounded=0;orthogonalLoop=1;jettySize=auto;html=1;" edge="1" parent="1" source="VS8DY8lQryiJPOhcqmUo-105" target="VS8DY8lQryiJPOhcqmUo-48">
          <mxGeometry relative="1" as="geometry" />
        </mxCell>
        <mxCell id="VS8DY8lQryiJPOhcqmUo-105" value="{adicionais_acai}" style="rounded=0;whiteSpace=wrap;html=1;fillColor=#ffe6cc;strokeColor=#d79b00;" vertex="1" parent="1">
          <mxGeometry x="490" y="870" width="120" height="60" as="geometry" />
        </mxCell>
        <mxCell id="VS8DY8lQryiJPOhcqmUo-123" style="edgeStyle=orthogonalEdgeStyle;rounded=0;orthogonalLoop=1;jettySize=auto;html=1;" edge="1" parent="1" source="VS8DY8lQryiJPOhcqmUo-116" target="VS8DY8lQryiJPOhcqmUo-122">
          <mxGeometry relative="1" as="geometry" />
        </mxCell>
        <mxCell id="VS8DY8lQryiJPOhcqmUo-116" value="{endereço}" style="rounded=0;whiteSpace=wrap;html=1;fillColor=#ffe6cc;strokeColor=#d79b00;" vertex="1" parent="1">
          <mxGeometry x="245" y="980" width="120" height="60" as="geometry" />
        </mxCell>
        <mxCell id="VS8DY8lQryiJPOhcqmUo-124" style="edgeStyle=orthogonalEdgeStyle;rounded=0;orthogonalLoop=1;jettySize=auto;html=1;" edge="1" parent="1" source="VS8DY8lQryiJPOhcqmUo-122" target="VS8DY8lQryiJPOhcqmUo-57">
          <mxGeometry relative="1" as="geometry" />
        </mxCell>
        <mxCell id="VS8DY8lQryiJPOhcqmUo-122" value="{total_da_compra}" style="rounded=0;whiteSpace=wrap;html=1;fillColor=#ffe6cc;strokeColor=#d79b00;" vertex="1" parent="1">
          <mxGeometry x="245" y="1070" width="120" height="60" as="geometry" />
        </mxCell>
        <mxCell id="VS8DY8lQryiJPOhcqmUo-143" style="edgeStyle=orthogonalEdgeStyle;rounded=0;orthogonalLoop=1;jettySize=auto;html=1;entryX=0.5;entryY=1;entryDx=0;entryDy=0;exitX=0.5;exitY=1;exitDx=0;exitDy=0;" edge="1" parent="1" source="VS8DY8lQryiJPOhcqmUo-130" target="VS8DY8lQryiJPOhcqmUo-53">
          <mxGeometry relative="1" as="geometry" />
        </mxCell>
        <mxCell id="VS8DY8lQryiJPOhcqmUo-130" value="{Troco}" style="rounded=0;whiteSpace=wrap;html=1;fillColor=#ffe6cc;strokeColor=#d79b00;" vertex="1" parent="1">
          <mxGeometry x="12.5" y="1620" width="120" height="60" as="geometry" />
        </mxCell>
        <mxCell id="VS8DY8lQryiJPOhcqmUo-142" style="edgeStyle=orthogonalEdgeStyle;rounded=0;orthogonalLoop=1;jettySize=auto;html=1;entryX=0.5;entryY=0;entryDx=0;entryDy=0;" edge="1" parent="1" source="VS8DY8lQryiJPOhcqmUo-132" target="VS8DY8lQryiJPOhcqmUo-130">
          <mxGeometry relative="1" as="geometry" />
        </mxCell>
        <mxCell id="VS8DY8lQryiJPOhcqmUo-132" value="Sim" style="rounded=0;whiteSpace=wrap;html=1;fillColor=#dae8fc;strokeColor=#6c8ebf;" vertex="1" parent="1">
          <mxGeometry x="12.5" y="1500" width="120" height="60" as="geometry" />
        </mxCell>
        <mxCell id="VS8DY8lQryiJPOhcqmUo-141" style="edgeStyle=orthogonalEdgeStyle;rounded=0;orthogonalLoop=1;jettySize=auto;html=1;entryX=-0.013;entryY=0.634;entryDx=0;entryDy=0;entryPerimeter=0;" edge="1" parent="1" source="VS8DY8lQryiJPOhcqmUo-135" target="VS8DY8lQryiJPOhcqmUo-53">
          <mxGeometry relative="1" as="geometry">
            <mxPoint x="210" y="1609.9999999999995" as="targetPoint" />
            <Array as="points">
              <mxPoint x="210" y="1599" />
            </Array>
          </mxGeometry>
        </mxCell>
        <mxCell id="VS8DY8lQryiJPOhcqmUo-135" value="Não" style="rounded=0;whiteSpace=wrap;html=1;fillColor=#dae8fc;strokeColor=#6c8ebf;" vertex="1" parent="1">
          <mxGeometry x="150" y="1500" width="120" height="60" as="geometry" />
        </mxCell>
      </root>
    </mxGraphModel>
  </diagram>
</mxfile>
